HIERARCHY
ROOT Hips
{
	OFFSET 0.000000 88.474243 0.000000
	CHANNELS 6 Xposition Yposition Zposition Zrotation Yrotation Xrotation 
	JOINT Hips_Spine
	{
		OFFSET 0.000000 0.000000 0.000000
		CHANNELS 3 Zrotation Yrotation Xrotation
		JOINT Spine
		{
			OFFSET 0.005100 8.711998 -0.691000
			CHANNELS 3 Zrotation Yrotation Xrotation
			JOINT Spine1
			{
				OFFSET -0.009200 8.660301 -1.275000
				CHANNELS 3 Zrotation Yrotation Xrotation
				JOINT Spine2
				{
					OFFSET 0.006300 9.852501 -1.857000
					CHANNELS 3 Zrotation Yrotation Xrotation
					JOINT Spine2_Neck
					{
						OFFSET 0.000000 0.000000 0.000000
						CHANNELS 3 Zrotation Yrotation Xrotation
						JOINT Neck
						{
							OFFSET 0.016300 11.420799 -0.263300
							CHANNELS 3 Zrotation Yrotation Xrotation
							End Site #name: Head
							{
								OFFSET -0.019200 9.262405 2.362500
							}
						}
					}
					JOINT Spine2_LeftShoulder
					{
						OFFSET 0.000000 0.000000 0.000000
						CHANNELS 3 Zrotation Yrotation Xrotation
						JOINT LeftShoulder
						{
							OFFSET 5.616900 6.732201 -0.345700
							CHANNELS 3 Zrotation Yrotation Xrotation
							JOINT LeftArm
							{
								OFFSET 10.664888 -0.183372 -2.440700
								CHANNELS 3 Zrotation Yrotation Xrotation
								JOINT LeftForeArm
								{
									OFFSET 27.459126 0.000000 0.000000
									CHANNELS 3 Zrotation Yrotation Xrotation
									End Site #name: LeftHand
									{
										OFFSET 21.306858 0.000000 0.000000
									}
								}
							}
						}
					}
					JOINT Spine2_RightShoulder
					{
						OFFSET 0.000000 0.000000 0.000000
						CHANNELS 3 Zrotation Yrotation Xrotation
						JOINT RightShoulder
						{
							OFFSET -5.580300 6.737503 -0.344400
							CHANNELS 3 Zrotation Yrotation Xrotation
							JOINT RightArm
							{
								OFFSET -10.679335 -0.188484 -2.383900
								CHANNELS 3 Zrotation Yrotation Xrotation
								JOINT RightForeArm
								{
									OFFSET -27.503529 0.000000 0.000000
									CHANNELS 3 Zrotation Yrotation Xrotation
									End Site #name: RightHand
									{
										OFFSET -21.306808 0.000000 0.000000
									}
								}
							}
						}
					}
				}
			}
		}
	}
	JOINT Hips_LeftUpLeg
	{
		OFFSET 0.000000 0.000000 0.000000
		CHANNELS 3 Zrotation Yrotation Xrotation
		JOINT LeftUpLeg
		{
			OFFSET 6.857700 -6.739601 0.312100
			CHANNELS 3 Zrotation Yrotation Xrotation
			JOINT LeftLeg
			{
				OFFSET -0.367590 -34.731552 -4.572400
				CHANNELS 3 Zrotation Yrotation Xrotation
				End Site #name: LeftFoot
				{
					OFFSET 0.367590 -34.656704 -6.067400
				}
			}
		}
	}
	JOINT Hips_RightUpLeg
	{
		OFFSET 0.000000 0.000000 0.000000
		CHANNELS 3 Zrotation Yrotation Xrotation
		JOINT RightUpLeg
		{
			OFFSET -6.876100 -6.733299 0.301000
			CHANNELS 3 Zrotation Yrotation Xrotation
			JOINT RightLeg
			{
				OFFSET 0.347353 -34.795158 -4.515900
				CHANNELS 3 Zrotation Yrotation Xrotation
				End Site #name: RightFoot
				{
					OFFSET -0.347353 -34.589367 -6.070300
				}
			}
		}
	}
}
MOTION
Frames: 7
Frame Time: 0.041667
0.038895 0.026434 0.049221 -0.484695 1.929553 -3.404617 0.000000 -0.000000 0.000000 0.867513 2.454418 5.402888 -2.322802 1.448313 4.732034 0.000000 0.000000 0.000000 -1.751648 1.161756 2.080302 2.783401 -0.781312 0.166633 -2.708691 0.949926 4.839606 -2.052458 1.766730 -0.539653 -71.027129 -13.983797 44.901112 0.276788 -51.627306 0.424265 -1.623423 1.290790 3.606362 3.993132 1.285221 2.987201 80.045203 3.615647 46.099037 -0.045568 32.278777 0.748403 0.000000 0.000000 0.000000 2.229942 6.382254 -11.555115 1.967432 6.179841 17.115693 0.000000 0.000000 0.000000 -3.910565 -10.757217 -11.967609 -2.332964 -4.268389 15.047392 
0.063218 0.087110 0.024967 -0.540331 2.614605 -3.425473 0.000000 -0.000000 0.000000 -0.268943 1.174649 1.478321 -1.598304 0.921678 4.525818 0.000000 0.000000 0.000000 -1.716318 0.978533 4.139647 2.251772 -0.112037 1.126376 -1.681056 0.653368 5.106757 -0.056003 3.650551 -1.121611 -66.895654 -8.313814 54.132408 0.081561 -45.051718 0.538248 -1.647896 0.558381 4.059481 4.227061 1.634164 1.567219 84.071968 7.869171 46.657833 0.137420 18.188127 0.453512 0.000000 0.000000 -0.000000 2.445236 5.751797 -9.927937 1.462057 6.701294 14.483322 0.000000 -0.000000 0.000000 -3.671995 -10.355341 -11.535711 -1.966605 -3.401600 14.526558 
0.141146 0.092437 -0.019027 -0.800603 2.946947 -3.469948 0.000000 0.000000 0.000000 -0.453481 0.996311 -0.239152 -0.976881 0.748398 4.157000 0.000000 0.000000 0.000000 -1.317537 0.735997 3.645285 1.604018 -0.042168 3.233592 -1.134894 0.673307 4.453972 -1.622731 5.147912 -1.104218 -64.883748 -6.907136 59.537664 0.128696 -37.753379 0.077394 -1.013680 0.633010 3.575647 4.304341 1.900706 0.882804 80.680564 6.438607 44.783962 0.079929 16.217157 0.307103 0.000000 0.000000 -0.000000 2.884388 7.235687 -9.607174 1.435708 6.850653 14.126746 0.000000 -0.000000 -0.000000 -3.548064 -9.689092 -11.664968 -1.703779 -3.126695 14.968681 
0.236926 0.082616 -0.073693 -1.016592 3.091192 -3.474760 0.000000 0.000000 0.000000 -0.442058 0.955875 -0.243116 -0.924196 0.840602 4.220628 0.000000 0.000000 0.000000 -1.211005 0.729018 3.564120 1.067258 -0.453261 5.062949 -1.026079 0.682981 4.266271 -1.602496 4.424265 -1.135043 -65.757942 -8.307343 60.737083 0.218578 -29.296229 -0.034265 -0.814597 0.709989 3.623654 4.012127 3.374420 1.146942 79.326333 6.988180 46.779036 0.097520 17.776366 0.148685 -0.000000 0.000000 -0.000000 3.118833 8.349427 -9.811479 1.833338 7.401972 14.578248 0.000000 -0.000000 0.000000 -3.358350 -9.613490 -11.995853 -1.517633 -2.571816 15.518287 
0.348716 0.073068 -0.127336 -1.136571 3.294004 -3.485252 0.000000 -0.000000 0.000000 -0.522595 1.001730 -0.342916 -1.090662 0.835908 4.316633 0.000000 0.000000 0.000000 -1.352174 0.745584 3.648880 0.865588 -0.658566 5.955105 -1.217385 0.637298 4.352838 -1.972392 3.708651 -1.054103 -66.760229 -9.598548 61.324828 0.269781 -27.347114 -0.074467 -1.012151 0.735393 3.752209 3.590112 4.680200 1.464676 78.846628 7.116139 49.073634 0.080082 20.062274 0.102859 -0.000000 0.000000 -0.000000 3.265946 9.340901 -10.052532 2.127107 7.808916 15.068095 0.000000 -0.000000 -0.000000 -3.306702 -9.572319 -12.179894 -1.235474 -2.077780 15.884052 
0.468745 0.065187 -0.177664 -1.216962 3.495237 -3.494031 0.000000 -0.000000 0.000000 -0.580719 1.080625 -0.382370 -1.264445 0.807067 4.465806 0.000000 0.000000 0.000000 -1.514538 0.740269 3.823081 0.678013 -0.825276 6.709686 -1.395733 0.631006 4.583937 -2.315153 3.157903 -0.954003 -67.224399 -9.962864 61.630973 0.289510 -27.444270 -0.098963 -1.217924 0.721075 3.893946 3.343882 5.610615 1.698874 78.091933 7.440317 50.060135 0.042009 22.367322 0.134530 -0.000000 0.000000 -0.000000 3.343543 9.990340 -10.229743 2.334318 8.072150 15.436766 0.000000 0.000000 -0.000000 -3.322506 -9.577213 -12.197193 -0.997664 -1.660689 15.929066 
0.589702 0.058562 -0.225669 -1.280000 3.653151 -3.497664 0.000000 -0.000000 0.000000 -0.564820 1.164332 -0.361805 -1.380415 0.791841 4.584248 0.000000 0.000000 0.000000 -1.626473 0.746306 3.957591 0.554158 -0.944528 7.067844 -1.498105 0.626530 4.774621 -2.375234 2.989718 -0.904714 -67.223770 -9.728705 61.568579 0.284681 -27.470390 -0.088357 -1.346367 0.717555 3.990988 3.273874 5.902947 1.794966 77.152537 7.594832 50.186090 0.023000 24.354902 0.167512 -0.000000 0.000000 -0.000000 3.381334 10.454075 -10.365628 2.446711 8.199891 15.701946 0.000000 0.000000 -0.000000 -3.347059 -9.608884 -12.183189 -0.822413 -1.343323 15.887280 
